<svg width="20" height="18" viewBox="0 0 20 18" fill="none" xmlns="http://www.w3.org/2000/svg">
<g id="2 User">
<path id="Fill 1" d="M7.34933 11.8579C3.38553 11.8579 0 12.4702 0 14.9175C0 17.3668 3.364 18.0002 7.34933 18.0002C11.3131 18.0002 14.6987 17.3879 14.6987 14.9405C14.6987 12.4913 11.3347 11.8579 7.34933 11.8579Z" fill="white"/>
<path id="Fill 3" opacity="0.4" d="M7.34935 9.52482C10.049 9.52482 12.2124 7.40617 12.2124 4.76241C12.2124 2.11865 10.049 0 7.34935 0C4.65072 0 2.48633 2.11865 2.48633 4.76241C2.48633 7.40617 4.65072 9.52482 7.34935 9.52482Z" fill="white"/>
<path id="Fill 5" opacity="0.4" d="M14.1733 4.84873C14.1733 6.19505 13.7604 7.45129 13.0363 8.4948C12.961 8.60212 13.0275 8.74682 13.1586 8.76981C13.3406 8.79952 13.5275 8.81773 13.7183 8.82156C15.6165 8.87043 17.3201 7.6736 17.7907 5.87116C18.4884 3.19674 16.4414 0.79541 13.8338 0.79541C13.551 0.79541 13.2799 0.824157 13.0157 0.87686C12.9795 0.884526 12.9404 0.901774 12.9208 0.932437C12.8954 0.971725 12.914 1.02251 12.9394 1.05605C13.7232 2.13214 14.1733 3.44205 14.1733 4.84873Z" fill="white"/>
<path id="Fill 7" d="M19.779 12.1693C19.4316 11.4439 18.593 10.9465 17.3171 10.7022C16.7153 10.5585 15.0852 10.3544 13.5695 10.3831C13.547 10.386 13.5343 10.4013 13.5324 10.4109C13.5294 10.4262 13.5363 10.4492 13.5656 10.4655C14.2662 10.8047 16.9737 12.2804 16.6332 15.3927C16.6185 15.5288 16.729 15.6438 16.867 15.6246C17.5333 15.5317 19.2476 15.1704 19.779 14.0474C20.0735 13.4533 20.0735 12.7634 19.779 12.1693Z" fill="white"/>
</g>
</svg>
