<svg width="20" height="20" viewBox="0 0 20 20" fill="none" xmlns="http://www.w3.org/2000/svg">
<g id="Discovery">
<path id="Fill 1" opacity="0.4" d="M20 10C20 15.523 15.523 20 10 20C4.477 20 0 15.523 0 10C0 4.478 4.477 0 10 0C15.523 0 20 4.478 20 10Z" fill="white"/>
<path id="Fill 4" d="M13.8597 6.70481L12.2397 11.8248C12.1797 12.0348 12.0097 12.2048 11.7997 12.2658L6.69972 13.8648C6.35972 13.9758 6.02972 13.6448 6.13972 13.3048L7.73972 8.17481C7.79972 7.96481 7.96972 7.80481 8.17972 7.73481L13.2997 6.13481C13.6497 6.02481 13.9697 6.35481 13.8597 6.70481Z" fill="white"/>
</g>
</svg>
