<svg width="20" height="19" viewBox="0 0 20 19" fill="none" xmlns="http://www.w3.org/2000/svg">
<g id="Heart">
<path id="Path_34179" opacity="0.4" d="M9.77615 18.8374C7.49311 17.4273 5.37081 15.7645 3.44807 13.8796C2.09069 12.5338 1.05404 10.8905 0.417345 9.07526C-0.720287 5.53523 0.603988 1.48948 4.30129 0.288397C6.2528 -0.324469 8.37523 0.0517545 10.0072 1.29983C11.6398 0.0531503 13.7616 -0.322951 15.7132 0.288397C19.4105 1.48948 20.7436 5.53523 19.606 9.07526C18.9745 10.8888 17.944 12.5319 16.5931 13.8796C14.6686 15.7625 12.5465 17.4251 10.265 18.8374L10.0161 19L9.77615 18.8374Z" fill="white"/>
<path id="Path_34178" d="M10.0109 19.0001L9.77598 18.8375C7.49013 17.4275 5.36487 15.7648 3.43902 13.8797C2.0752 12.5357 1.03238 10.8923 0.390519 9.07536C-0.738225 5.53532 0.58605 1.48957 4.28335 0.288489C6.23486 -0.324376 8.38528 0.052135 10.0109 1.31067V19.0001Z" fill="white"/>
<path id="Path_34180" d="M16.2304 6.99922C16.0296 6.98629 15.8425 6.8859 15.7131 6.72157C15.5836 6.55723 15.5232 6.3434 15.5459 6.13016C15.5677 5.4278 15.168 4.78851 14.5517 4.53977C14.1609 4.43309 13.9243 4.00987 14.022 3.59249C14.1148 3.18182 14.4993 2.92647 14.8858 3.0189C14.9346 3.027 14.9816 3.04468 15.0244 3.07105C16.2601 3.54658 17.0601 4.82641 16.9965 6.22576C16.9944 6.43785 16.9117 6.63998 16.7673 6.78581C16.6229 6.93164 16.4291 7.00866 16.2304 6.99922Z" fill="white"/>
</g>
</svg>
