<svg width="25" height="24" viewBox="0 0 25 24" fill="none" xmlns="http://www.w3.org/2000/svg">
<g id="Iconly">
<path id="Fill 1" opacity="0.4" d="M2.5 7.66L2.5 16.33C2.5 19.72 4.88 22 8.42 22H16.59C20.12 22 22.5 19.72 22.5 16.33V7.66C22.5 4.27 20.12 2 16.59 2H8.42C4.88 2 2.5 4.27 2.5 7.66Z" fill="white"/>
<path id="Combined Shape" fill-rule="evenodd" clip-rule="evenodd" d="M11.3037 16.4788C11.3037 17.1398 11.8407 17.6768 12.4997 17.6768C13.1597 17.6768 13.6977 17.1398 13.6977 16.4788C13.6977 15.8178 13.1597 15.2808 12.4997 15.2808C11.8407 15.2808 11.3037 15.8178 11.3037 16.4788ZM11.3037 11.9998C11.3037 12.6608 11.8407 13.1978 12.4997 13.1978C13.1597 13.1978 13.6977 12.6608 13.6977 11.9998C13.6977 11.3388 13.1597 10.8018 12.4997 10.8018C11.8407 10.8018 11.3037 11.3388 11.3037 11.9998ZM12.4997 8.71826C11.8407 8.71826 11.3037 8.18126 11.3037 7.52026C11.3037 6.85926 11.8407 6.32226 12.4997 6.32226C13.1597 6.32226 13.6977 6.85926 13.6977 7.52026C13.6977 8.18126 13.1597 8.71826 12.4997 8.71826Z" fill="white"/>
</g>
</svg>
