<svg width="24" height="24" viewBox="0 0 24 24" fill="none" xmlns="http://www.w3.org/2000/svg">
<g id="Iconly">
<path id="Fill 1" opacity="0.4" d="M2 7.66L2 16.33C2 19.72 4.38 22 7.92 22H16.09C19.62 22 22 19.72 22 16.33V7.66C22 4.27 19.62 2 16.09 2H7.92C4.38 2 2 4.27 2 7.66Z" fill="white"/>
<path id="Combined Shape" fill-rule="evenodd" clip-rule="evenodd" d="M10.8037 16.4788C10.8037 17.1398 11.3407 17.6768 11.9997 17.6768C12.6597 17.6768 13.1977 17.1398 13.1977 16.4788C13.1977 15.8178 12.6597 15.2808 11.9997 15.2808C11.3407 15.2808 10.8037 15.8178 10.8037 16.4788ZM10.8037 11.9998C10.8037 12.6608 11.3407 13.1978 11.9997 13.1978C12.6597 13.1978 13.1977 12.6608 13.1977 11.9998C13.1977 11.3388 12.6597 10.8018 11.9997 10.8018C11.3407 10.8018 10.8037 11.3388 10.8037 11.9998ZM11.9997 8.71826C11.3407 8.71826 10.8037 8.18126 10.8037 7.52026C10.8037 6.85926 11.3407 6.32226 11.9997 6.32226C12.6597 6.32226 13.1977 6.85926 13.1977 7.52026C13.1977 8.18126 12.6597 8.71826 11.9997 8.71826Z" fill="white"/>
</g>
</svg>
