<svg width="33" height="34" viewBox="0 0 33 34" fill="none" xmlns="http://www.w3.org/2000/svg">
<g id="logo">
<path id="Vector" d="M15.2911 0.0892173L8.09577 1.63987C7.83785 1.69487 7.60657 1.83662 7.44049 2.04148C7.27441 2.24634 7.18356 2.50193 7.18309 2.76565V15.1488C6.6581 14.9664 6.10618 14.8736 5.55042 14.8743C3.03734 14.8743 1 16.7197 1 18.996C1 21.2723 3.03734 23.1177 5.55049 23.1177C7.27758 23.1177 9.00501 22.1789 9.72299 20.5783C10.347 19.1873 10.1008 17.5151 10.1008 16.0233V6.12415L20.01 3.82264C19.9759 1.37438 17.6964 -0.429083 15.2912 0.0892837L15.2911 0.0892173Z" fill="#9155FD"/>
<path id="Vector_2" d="M15.0566 11.998V25.2556C15.0565 25.2872 15.0489 25.3184 15.0346 25.3466C15.0204 25.3748 14.9997 25.3993 14.9743 25.4181C14.9489 25.437 14.9195 25.4497 14.8884 25.4552C14.8572 25.4607 14.8252 25.4589 14.7949 25.4499C14.3491 25.3225 13.8876 25.2581 13.424 25.2585C10.9108 25.2585 8.87354 27.1039 8.87354 29.3802C8.87354 31.6566 10.9108 33.5019 13.424 33.5019C15.1511 33.5019 16.8785 32.5631 17.5965 30.9625C18.2205 29.5715 17.9744 27.8993 17.9744 26.4075V15.6245C17.9745 15.5481 18.0005 15.474 18.0481 15.4143C18.0958 15.3545 18.1622 15.3127 18.2367 15.2955L27.8835 13.055C27.9332 13.0433 27.9849 13.043 28.0347 13.054C28.0845 13.0651 28.1312 13.0873 28.1713 13.1189C28.2113 13.1505 28.2437 13.1908 28.2661 13.2367C28.2884 13.2826 28.3001 13.3329 28.3003 13.384V24.242C28.3001 24.2737 28.2926 24.3048 28.2783 24.333C28.264 24.3613 28.2434 24.3858 28.218 24.4046C28.1926 24.4235 28.1632 24.4362 28.132 24.4417C28.1009 24.4472 28.0689 24.4454 28.0386 24.4364C27.5928 24.309 27.1313 24.2445 26.6676 24.245C24.1545 24.245 22.1172 26.0903 22.1172 28.3667C22.1172 30.6431 24.1545 32.4884 26.6676 32.4884C28.1884 32.4884 29.7006 31.7011 30.5535 30.413C31.38 29.1648 31.2184 27.8537 31.218 26.4434C31.2172 23.9282 31.2172 21.413 31.218 18.8979V8.84263C31.2175 8.69088 31.183 8.54116 31.1172 8.40444C31.0513 8.26773 30.9557 8.14748 30.8374 8.0525C30.719 7.95752 30.5809 7.89023 30.4332 7.85554C30.2854 7.82086 30.1318 7.81966 29.9836 7.85204L15.9693 10.8722C15.7114 10.9272 15.4801 11.069 15.314 11.2738C15.1479 11.4787 15.0571 11.7343 15.0566 11.998Z" fill="#FAC33F"/>
<path id="Vector_3" d="M26.308 13.384C26.3078 13.3329 26.2961 13.2826 26.2738 13.2367C26.2515 13.1908 26.2191 13.1505 26.179 13.1189C26.1389 13.0873 26.0923 13.0651 26.0424 13.054C25.9926 13.043 25.9409 13.0433 25.8912 13.055L16.2444 15.2955C16.17 15.3127 16.1035 15.3545 16.0559 15.4143C16.0082 15.474 15.9822 15.5481 15.9821 15.6245V26.4075C15.9821 27.8993 16.2282 29.5715 15.6043 30.9626C15.0241 32.2559 13.7846 33.1168 12.4189 33.3998C12.7496 33.4676 13.0863 33.5018 13.4239 33.5019C15.151 33.5019 16.8785 32.5631 17.5964 30.9625C18.2204 29.5715 17.9743 27.8993 17.9743 26.4075V15.6245C17.9744 15.5481 18.0004 15.474 18.0481 15.4143C18.0957 15.3545 18.1621 15.3127 18.2366 15.2955L26.308 13.4209V13.384ZM13.0623 25.2727C12.8491 25.2877 12.637 25.3165 12.4275 25.3588C12.5545 25.3847 12.6799 25.4147 12.8026 25.4499C12.8315 25.4584 12.8619 25.4603 12.8916 25.4557C12.9213 25.451 12.9496 25.4397 12.9745 25.4228C12.9993 25.4058 13.0201 25.3835 13.0353 25.3576C13.0505 25.3316 13.0597 25.3026 13.0623 25.2726V25.2727ZM31.2179 26.4434C31.2171 23.9282 31.2171 21.413 31.2179 18.8979V8.84263C31.2174 8.69088 31.183 8.54116 31.1171 8.40444C31.0512 8.26773 30.9556 8.14748 30.8373 8.0525C30.7189 7.95752 30.5808 7.89023 30.4331 7.85554C30.2853 7.82086 30.1317 7.81966 29.9835 7.85204L28.8856 8.08865C28.9926 8.18295 29.0783 8.29898 29.1369 8.42898C29.1956 8.55899 29.2258 8.70001 29.2257 8.84263V26.4434C29.2262 27.8536 29.3877 29.1648 28.5612 30.413C27.8792 31.4207 26.8344 32.1263 25.6449 32.3826C25.9812 32.4528 26.3239 32.4882 26.6675 32.4884C28.1882 32.4884 29.7005 31.7011 30.5534 30.413C31.3799 29.1648 31.2184 27.8537 31.2179 26.4434ZM26.306 24.2591C26.0927 24.2742 25.8807 24.303 25.6712 24.3453C25.7982 24.3711 25.9235 24.4012 26.0463 24.4364C26.0752 24.4449 26.1056 24.4469 26.1353 24.4422C26.165 24.4375 26.1933 24.4262 26.2181 24.4093C26.243 24.3923 26.2637 24.37 26.2789 24.3441C26.2941 24.3181 26.3033 24.2891 26.306 24.2591Z" fill="#F7A701"/>
</g>
</svg>
