<svg width="28" height="28" viewBox="0 0 28 28" fill="none" xmlns="http://www.w3.org/2000/svg">
<g id="Shuffle">
<path id="Vector" d="M11.5232 11.524C11.9819 11.0685 11.9829 10.3269 11.5254 9.87029L7.1344 5.48781C6.6798 5.03409 5.94356 5.03444 5.4894 5.48861C5.03493 5.94308 5.03493 6.67993 5.4894 7.1344L9.87612 11.5211C10.3306 11.9756 11.0671 11.9768 11.5232 11.524ZM19.2968 4.6665C18.4184 4.6665 17.9785 5.7285 18.5996 6.34961C18.9845 6.73454 18.9847 7.35859 18.5999 7.74367L5.48868 20.8653C5.03455 21.3198 5.0347 22.0564 5.489 22.5107C5.94331 22.965 6.67984 22.9651 7.13433 22.511L20.256 9.39978C20.6411 9.01501 21.2651 9.01513 21.6501 9.40006C22.2712 10.0212 23.3332 9.58127 23.3332 8.70289V5.83317C23.3332 5.18884 22.8108 4.6665 22.1665 4.6665H19.2968ZM18.124 16.4673C17.6698 16.0131 16.9333 16.0131 16.479 16.4673C16.0247 16.9216 16.0247 17.6581 16.479 18.1123L18.6077 20.241C18.9945 20.6279 18.9945 21.2551 18.6077 21.642C17.9836 22.2661 18.4256 23.3332 19.3082 23.3332H22.1665C22.8108 23.3332 23.3332 22.8108 23.3332 22.1665V19.2965C23.3332 18.4182 22.2713 17.9784 21.6503 18.5994C21.2653 18.9844 20.6411 18.9844 20.2561 18.5994L18.124 16.4673Z" fill="#9D9EA1"/>
</g>
</svg>
